HIERARCHY
ROOT hip
{
	OFFSET 0.000000 0.000000 0.000000 
	CHANNELS 6 Xposition Yposition Zposition Xrotation Zrotation Yrotation
	JOINT abdomen
	{
		OFFSET 0.000000 3.402643 0.000000 
		CHANNELS 3 Xrotation Zrotation Yrotation
		JOINT chest
		{
			OFFSET 0.000000 8.438565 -0.680529 
			CHANNELS 3 Xrotation Zrotation Yrotation
			JOINT neck
			{
				OFFSET 0.000000 10.207942 -0.272212 
				CHANNELS 3 Xrotation Zrotation Yrotation
				JOINT head
				{
					OFFSET 0.000000 3.130431 0.000000 
					CHANNELS 3 Xrotation Zrotation Yrotation
					End Site
					{
						OFFSET 0.000000 3.130435 0.000000 
					}
				}
			}
			JOINT lCollar
			{
				OFFSET 3.470700 6.669187 -0.816635 
				CHANNELS 3 Yrotation Zrotation Xrotation
				JOINT lShldr
				{
					OFFSET 3.198488 0.000000 0.000000 
					CHANNELS 3 Zrotation Yrotation Xrotation
					JOINT lForeArm
					{
						OFFSET 10.139888 0.000000 0.000000 
						CHANNELS 3 Yrotation Zrotation Xrotation
						JOINT lHand
						{
							OFFSET 8.370511 0.000000 0.000000 
							CHANNELS 3 Zrotation Yrotation Xrotation
							End Site
							{
								OFFSET 4.083176 0.000000 0.000000 
							}
						}
					}
				}
			}
			JOINT rCollar
			{
				OFFSET -3.470700 6.669187 -0.816635 
				CHANNELS 3 Yrotation Zrotation Xrotation
				JOINT rShldr
				{
					OFFSET -3.198488 0.000000 0.000000 
					CHANNELS 3 Zrotation Yrotation Xrotation
					JOINT rForeArm
					{
						OFFSET -10.139888 0.000000 0.000000 
						CHANNELS 3 Yrotation Zrotation Xrotation
						JOINT rHand
						{
							OFFSET -8.370511 0.000000 0.000000 
							CHANNELS 3 Zrotation Yrotation Xrotation
							End Site
							{
								OFFSET -4.083176 0.000000 0.000000 
							}
						}
					}
				}
			}
		}
	}
	JOINT lThigh
	{
		OFFSET 5.308129 -1.633274 1.361059 
		CHANNELS 3 Xrotation Zrotation Yrotation
		JOINT lShin
		{
			OFFSET -2.041588 -20.007561 0.000000 
			CHANNELS 3 Xrotation Zrotation Yrotation
			JOINT lFoot
			{
				OFFSET 0.000000 -19.190928 -1.224953 
				CHANNELS 3 Xrotation Yrotation Zrotation
				End Site
				{
					OFFSET 0.000000 -2.449906 4.627600 
				}
			}
		}
	}
	JOINT rThigh
	{
		OFFSET -5.308129 -1.633274 1.361059 
		CHANNELS 3 Xrotation Zrotation Yrotation
		JOINT rShin
		{
			OFFSET 2.041588 -20.007561 0.000000 
			CHANNELS 3 Xrotation Zrotation Yrotation
			JOINT rFoot
			{
				OFFSET 0.000000 -19.190928 -1.224953 
				CHANNELS 3 Xrotation Yrotation Zrotation
				End Site
				{
					OFFSET 0.000000 -2.449906 4.627600 
				}
			}
		}
	}
}
MOTION
Frames: 18
Frame Time: 0.016667
-6.759005 48.405430 -22.534737 -9.241566 1.571695 -1.543459 0.000000 0.000000 0.000000 15.371742 2.599746 6.347606 6.953231 2.343423 0.958227 10.347198 0.641449 -5.605772 -6.294144 17.508488 16.389482 -108.013100 -49.433636 69.720634 -75.740982 1.428871 18.063904 -9.527870 -1.586780 -3.010967 15.923716 18.514652 12.395960 58.033398 39.247108 91.272232 83.701958 -19.474449 16.998241 6.483466 2.291824 -3.099019 -9.011927 13.072417 8.999885 30.508785 -5.033724 8.630394 -8.636109 0.575576 -7.632451 -8.065858 -19.127234 -11.059843 30.280401 2.655796 -3.846168 -8.660269 -0.831860 10.715373 
-6.760648 48.352631 -21.636139 -10.898726 0.886719 -3.799279 0.000000 0.000000 0.000000 13.549577 2.880385 5.889249 5.838337 1.893352 2.022639 8.471469 1.303748 -4.932805 -5.802249 18.079851 14.640876 -89.192749 -38.576202 51.080978 -81.676689 3.048612 12.866481 -6.727374 0.655237 -3.292182 15.470223 17.824188 10.823743 45.875408 29.862732 81.497093 90.809792 -21.289633 16.126413 9.142901 0.567420 -3.152987 -6.043653 14.008533 10.713468 32.002003 -5.135793 9.549147 -10.662745 0.822879 -8.452618 -6.220490 -18.687416 -11.048711 30.984884 2.226419 -0.449344 -10.230120 -0.948184 10.467487 
-6.700593 48.344730 -20.623375 -13.046734 1.136568 -5.879876 0.000000 0.000000 0.000000 11.490541 2.405693 4.805459 5.179852 1.560821 2.657392 5.584899 1.004090 -3.398942 -6.671500 17.096027 12.713428 -71.768845 -22.548300 35.970219 -85.343605 3.269836 5.487990 -6.718332 2.373869 -3.422118 13.752315 14.650136 9.517558 33.748299 20.319782 71.736359 94.549393 -20.968744 14.638819 3.315035 -2.964248 -3.463417 -2.148777 13.355403 11.732166 32.330212 -5.287224 10.607273 -12.254536 0.964287 -9.231874 -3.818795 -19.726772 -11.770082 31.771397 1.791533 3.244661 -11.856023 -1.006976 10.146056 
-6.665439 48.376728 -19.654240 -13.524817 0.794875 -6.963437 0.000000 0.000000 0.000000 8.018164 2.632256 2.527673 4.303124 1.433607 2.979537 1.043796 2.235770 -1.280228 -7.122625 16.690781 9.303573 -56.760700 -3.907256 29.258301 -82.379547 1.879909 -0.366606 -7.796119 0.187910 -3.238851 11.036632 9.717511 6.895450 21.966654 12.564669 62.701710 93.978577 -18.873541 10.191550 1.475191 -5.995088 -3.593792 -0.118133 13.423932 12.377324 32.464657 -5.296269 10.767151 -13.610611 1.193434 -9.800193 -2.276537 -19.904432 -12.186682 31.429863 1.681314 4.410670 -12.616353 -1.139245 10.381908 
-6.713450 48.479820 -18.687637 -12.894801 0.523595 -6.836186 0.000000 0.000000 0.000000 3.772396 2.904437 0.010012 2.953043 1.375538 2.598548 -4.390185 4.589822 0.176780 -6.448371 17.711395 5.106894 -43.767643 10.439713 29.316586 -71.663017 -1.604762 -3.891575 -10.188743 -3.125728 -2.848364 7.104750 2.419251 3.703744 12.411012 6.568511 54.209087 87.981140 -15.606308 8.091604 2.758620 -1.957766 -3.474997 0.720943 13.644739 12.479126 31.869154 -5.188843 10.413296 -14.390225 1.305787 -10.208200 -1.006716 -19.684513 -12.463842 30.391445 1.842106 4.237806 -13.235711 -1.237769 10.794429 
-6.746970 48.681091 -17.720167 -11.153828 0.640736 -6.221077 0.000000 0.000000 0.000000 -1.186571 2.839004 -1.720028 0.913757 1.951726 2.169371 -9.872003 5.907024 1.149576 -4.611268 20.408991 0.144754 -34.228409 17.575333 27.095604 -51.355606 -8.079698 2.186989 -16.433846 -10.292304 -1.266881 1.786987 -6.368505 -0.353552 6.358015 3.418569 45.819584 74.222015 -9.767333 1.443361 7.036598 8.168047 -2.620859 0.731655 13.122477 11.480835 30.198568 -4.748815 11.075566 -14.644443 1.411332 -10.849422 -0.206779 -19.387800 -12.521457 28.479515 2.154637 3.531473 -13.691562 -1.322796 11.286878 
-6.791309 48.955971 -16.724743 -8.647772 1.126183 -6.202272 0.000000 0.000000 0.000000 -6.349908 2.557906 -2.203556 -1.980970 2.351429 2.414484 -15.300910 7.400225 1.379696 -1.789882 22.584391 -5.152387 -27.744007 13.098989 12.025748 -8.395767 -13.212690 15.762577 -18.687878 -16.491671 -0.012834 -1.679719 -14.401515 -5.202865 5.902102 3.452506 29.983824 43.399403 0.409984 -3.218657 19.033169 16.803591 0.229057 0.770155 11.851258 9.992415 27.320175 -4.407195 12.666398 -14.507583 1.456507 -11.512426 -0.049911 -18.968546 -11.844480 25.899757 2.037299 2.634368 -13.935864 -1.415115 11.868673 
-6.877469 49.179615 -15.853908 -5.832191 1.396165 -6.867232 0.000000 0.000000 0.000000 -10.881719 2.326482 -1.642199 -5.143102 2.935633 2.924089 -22.947737 9.697081 0.358054 3.271938 23.631163 -10.319245 -15.289555 15.194251 -6.161574 0.873391 -9.192799 11.120651 -8.954388 -9.135940 -2.192981 -4.637649 -17.890923 -9.818769 0.296634 6.538369 4.051119 6.571537 8.716570 3.029845 7.985792 15.752117 -2.028860 0.487851 10.916211 8.698646 24.494059 -3.896965 15.582684 -14.006233 1.539516 -12.571512 -0.644992 -18.415918 -10.905005 23.367987 1.969689 1.677287 -13.813096 -1.488667 12.329934 
-6.983530 49.313038 -15.174299 -3.614990 1.809553 -7.738202 0.000000 0.000000 0.000000 -14.026507 1.953931 -0.498572 -7.291713 3.613217 4.227581 -31.930124 9.550754 0.139685 11.040959 23.218754 -14.687456 -6.174154 11.829733 -30.335917 -0.747470 -2.229158 -14.014447 2.981562 -6.343727 -3.662900 -6.115220 -17.946716 -13.080245 -10.312676 -1.610003 -23.991482 -0.353365 5.356196 -12.404435 -24.938158 5.656249 -5.024863 0.389100 10.031878 7.773979 22.094563 -3.487553 17.557516 -13.638457 1.599516 -13.228704 -1.318596 -18.329334 -10.329309 21.614689 1.988797 1.522509 -13.876829 -1.486847 12.507721 
-7.083392 49.359249 -14.604464 -3.368427 2.413165 -8.728122 0.000000 0.000000 0.000000 -14.367061 1.588506 0.408972 -9.549504 4.164794 4.847431 -36.721462 8.271049 0.592486 20.408422 21.861732 -16.613764 3.242296 4.335756 -54.707642 -1.091997 4.598184 -24.367609 7.568103 -1.963473 -3.715565 -8.954912 -18.028904 -13.986475 -18.376816 -4.117312 -55.550385 1.476358 -6.021821 -46.647919 -30.878250 1.627071 -4.900475 1.940924 9.240730 7.867091 20.130785 -3.584275 18.151886 -13.493210 1.611476 -13.403565 -0.811378 -19.174232 -10.699562 20.994896 2.165066 3.326586 -14.368981 -1.534024 12.256759 
-7.230676 49.350571 -14.095128 -5.083249 2.491667 -9.901813 0.000000 0.000000 0.000000 -12.959161 1.527218 1.317205 -10.369614 3.770728 5.647575 -40.136909 9.657804 -0.524988 25.044954 21.215956 -15.996993 12.891063 6.202703 -61.183060 -0.615079 7.049825 -13.385021 13.994381 -9.671854 -5.018693 -15.676451 -21.773642 -14.434669 -20.675613 -5.634256 -62.166401 1.627283 -9.545397 -51.025814 -15.418267 3.550460 -4.309971 4.998875 9.031821 8.943446 18.929398 -3.915892 18.295576 -13.393304 1.601651 -13.514658 1.257930 -19.809555 -11.485044 20.970205 2.125940 6.121082 -15.151863 -1.538635 11.760483 
-7.483067 49.403938 -13.663267 -6.315012 2.208965 -10.437283 0.000000 0.000000 0.000000 -12.177466 1.662646 1.608773 -11.054626 3.077856 6.161787 -39.900345 11.227230 -1.392356 27.821083 20.275166 -15.587327 20.565083 8.777876 -58.730282 -0.654869 7.059458 -14.120679 20.657475 -8.365083 -5.410481 -22.843239 -26.226206 -16.145832 -20.389309 -9.903787 -46.733860 1.184029 -4.621305 -30.910404 -17.740137 4.994646 -4.713061 7.737547 9.311163 10.205882 17.261148 -4.228860 18.310041 -12.863294 1.529792 -13.533957 3.222235 -19.432875 -11.853456 20.398619 1.930655 6.932892 -15.469258 -1.554682 11.463346 
-7.751785 49.459911 -13.272713 -6.034750 2.630960 -10.508821 0.000000 0.000000 0.000000 -13.075445 1.297944 1.486231 -12.393055 2.266178 5.160315 -36.914082 11.892348 -2.604769 33.290363 17.180567 -16.501188 27.578461 5.725701 -65.790527 -0.862210 7.798285 -19.331003 19.187706 -5.295337 -4.847909 -26.213528 -24.872948 -17.474556 -26.869476 -12.519806 -41.294308 0.931324 -3.225387 -20.508812 -22.368475 6.774071 -5.367052 8.991354 8.856167 10.216779 14.945068 -4.197825 19.089403 -11.968776 1.459837 -13.713593 3.562306 -19.409702 -11.888190 20.084583 1.832978 6.861402 -15.910755 -1.547880 11.324468 
-8.031731 49.481266 -12.928404 -5.511594 2.927217 -10.658408 0.000000 0.000000 0.000000 -14.355627 1.463372 1.264384 -14.123393 0.721157 3.691727 -33.290176 12.590549 -4.421026 34.857876 12.863188 -16.645874 35.654015 4.451214 -75.480865 -0.861217 10.216303 -20.838335 17.225321 -7.117463 -4.930149 -32.141628 -23.847832 -19.550119 -30.504488 -9.797084 -55.748264 1.136516 -3.085906 -22.867723 -27.674456 5.753595 -5.606216 9.973643 8.550789 10.061629 12.785029 -4.059112 19.212051 -11.348275 1.413457 -13.823639 3.250462 -19.353001 -11.818870 20.223232 1.793967 5.763187 -16.126293 -1.610996 11.405687 
-8.296268 49.433216 -12.677098 -5.472892 3.037087 -11.177793 0.000000 0.000000 0.000000 -15.273652 1.633630 1.405240 -15.766227 -0.097552 2.646480 -31.136520 11.923865 -5.249547 32.623753 12.208460 -17.014517 40.490765 5.989213 -79.248978 -0.877304 11.144542 -21.626968 20.501854 -6.897014 -5.189883 -34.566757 -22.901564 -20.674564 -33.706802 -10.503316 -71.313667 0.916910 -3.377476 -17.404242 -30.430477 6.184772 -5.947458 11.054164 8.554588 10.378918 11.748435 -4.184403 18.820801 -11.379899 1.402909 -13.970604 2.907414 -19.495409 -11.994986 21.200262 2.037891 6.498891 -16.900230 -1.598754 10.846448 
-8.594707 49.329800 -12.426957 -6.522820 2.198528 -10.554381 0.000000 0.000000 0.000000 -15.295377 1.992343 0.841654 -16.955324 -0.888591 0.771543 -32.675190 11.222712 -6.739020 30.223721 15.192532 -17.678486 40.226322 7.316097 -80.675941 -0.773254 9.974673 -18.024509 24.740614 -7.732421 -5.782520 -35.752186 -23.247137 -20.849098 -33.845608 -11.710773 -79.651382 0.709676 -3.702312 -12.668725 -35.226616 9.336699 -7.371782 12.273579 9.941289 11.553703 12.674657 -4.125748 16.785580 -12.047451 1.558925 -14.481196 4.676182 -18.787048 -12.483219 21.609875 2.282075 7.147087 -17.809170 -1.626674 10.386076 
-8.816058 49.290936 -12.247956 -7.354184 1.693488 -9.838305 0.000000 0.000000 0.000000 -15.159330 2.004725 0.350026 -19.111206 -1.054641 -0.537378 -34.288532 10.243361 -7.165323 30.854389 15.475125 -17.800879 39.321251 5.561586 -80.961121 -0.668232 8.906530 -14.979930 25.629555 -7.420010 -5.797895 -36.477993 -22.989603 -20.656700 -32.521702 -12.362501 -83.415749 0.650832 -4.880514 -12.364080 -38.340370 9.320892 -7.710167 13.312045 10.855843 12.478366 12.840746 -4.128900 15.222034 -12.210269 1.597158 -14.641465 6.042996 -18.150799 -12.880649 21.692905 2.330794 5.730608 -17.943253 -1.657513 10.637689 
-9.006767 49.319515 -12.176725 -7.558455 1.378329 -9.250515 0.000000 0.000000 0.000000 -15.461797 1.851294 -0.027844 -21.264416 -1.327679 -1.484882 -34.050159 10.441631 -7.804527 30.787193 16.640919 -18.421385 36.425018 4.933661 -77.549774 -0.650886 7.251193 -13.684748 23.391462 -6.877974 -5.467691 -37.170528 -21.554008 -20.516417 -30.900923 -11.252671 -84.027367 0.741498 -6.914886 -16.020473 -37.187931 7.062038 -6.844734 14.143377 11.500956 13.379458 12.098423 -4.379694 13.285867 -12.165095 1.538686 -14.310775 6.541277 -17.234888 -12.579825 21.420681 2.086610 3.707948 -17.742043 -1.696568 10.988343 
